<?xml version="1.0" standalone="no"?>
<!DOCTYPE svg PUBLIC "-//W3C//DTD SVG 20010904//EN"
 "http://www.w3.org/TR/2001/REC-SVG-20010904/DTD/svg10.dtd">
<svg version="1.0" xmlns="http://www.w3.org/2000/svg"
 width="500.000000pt" height="500.000000pt" viewBox="0 0 500.000000 500.000000"
 preserveAspectRatio="xMidYMid meet">

<g transform="translate(0.000000,500.000000) scale(0.100000,-0.100000)"
fill="#000000" stroke="none">
<path d="M2040 3390 c0 -170 -3 -310 -7 -310 -5 0 -19 9 -33 20 -14 11 -32 19
-40 19 -8 0 -62 -37 -120 -82 l-105 -83 -3 -142 -3 -141 -97 -3 -97 -3 -3
-258 -2 -257 975 0 975 0 -2 413 -3 412 -210 0 -210 0 -3 -97 c-1 -54 -5 -98
-8 -98 -4 0 -20 11 -36 25 -16 14 -35 22 -41 18 -7 -4 -60 -45 -119 -91 l-108
-84 0 -229 0 -229 -25 0 -25 0 0 479 c0 264 -3 486 -6 495 -5 12 -21 16 -65
16 l-59 0 0 150 0 151 140 -106 140 -106 0 -236 0 -236 20 18 c19 18 20 29 18
248 l-3 230 -160 123 c-88 68 -168 123 -177 124 -17 0 -18 -15 -18 -180 l0
-180 -128 0 -129 0 -6 -242 c-4 -133 -7 -355 -7 -495 l0 -253 -25 0 -25 0 0
375 0 374 -27 26 c-16 14 -43 36 -60 48 l-33 22 0 303 0 304 43 -31 c23 -18
86 -65 140 -107 l97 -74 0 -105 c0 -99 1 -105 20 -105 20 0 21 5 18 117 l-3
118 -160 122 c-88 67 -168 123 -177 123 -17 0 -18 -21 -18 -310z m476 -266
c-3 -9 -6 -222 -6 -475 l0 -459 -105 0 -105 0 0 475 0 475 111 0 c97 0 110 -2
105 -16z m124 -459 l0 -475 -40 0 -40 0 0 475 0 475 40 0 40 0 0 -475z m-600
-62 l0 -413 -40 0 -40 0 -2 238 -3 237 -92 3 -93 3 0 129 0 129 96 75 96 75
39 -31 39 -31 0 -414z m93 344 c16 -13 17 -44 17 -386 l0 -371 -35 0 -35 0 0
395 c0 433 -4 406 53 362z m1303 -23 c-3 -9 -6 -177 -6 -375 l0 -359 -110 0
-110 0 0 233 0 234 -60 43 -60 43 0 99 0 98 176 0 c157 0 175 -2 170 -16z
m-400 -197 c4 -7 -2 -4 -14 7 -11 10 -25 16 -31 15 -6 -2 -49 -33 -95 -69
l-85 -65 -3 -209 c-2 -156 -6 -210 -15 -214 -10 -3 -13 45 -13 216 l0 219 97
76 97 75 28 -19 c15 -11 31 -25 34 -32z m101 -73 l33 -25 0 -220 0 -219 -40 0
-40 0 0 245 c0 135 3 245 7 245 3 0 21 -11 40 -26z m-1407 -244 l0 -220 -80 0
-80 0 0 220 0 220 80 0 80 0 0 -220z m190 210 c0 -6 -28 -10 -65 -10 l-65 0 0
-210 c0 -133 -4 -210 -10 -210 -6 0 -10 80 -10 220 l0 220 75 0 c43 0 75 -4
75 -10z"/>
<path d="M1122 1932 c-9 -7 -12 -40 -10 -133 l3 -124 57 0 c85 1 120 40 119
135 0 67 -15 99 -56 115 -38 16 -93 19 -113 7z m115 -59 c18 -24 16 -104 -3
-131 -11 -15 -25 -22 -50 -22 l-34 0 0 91 0 92 37 -6 c21 -4 44 -14 50 -24z"/>
<path d="M1450 1912 c-49 -50 -52 -171 -4 -219 32 -32 87 -31 118 2 45 48 42
190 -5 228 -32 26 -76 22 -109 -11z m90 -41 c5 -11 10 -43 10 -71 0 -28 -5
-60 -10 -71 -15 -26 -46 -24 -65 5 -20 30 -23 119 -5 140 17 22 57 20 70 -3z"/>
<path d="M2062 1928 c-8 -11 -92 -241 -92 -254 0 -2 9 -4 20 -4 13 0 24 10 30
25 8 22 15 25 60 25 44 0 52 -3 62 -25 15 -33 53 -35 42 -2 -22 72 -93 242
-101 244 -6 2 -15 -2 -21 -9z m34 -113 c20 -49 18 -55 -21 -55 l-34 0 17 45
c9 25 18 45 20 45 2 0 10 -16 18 -35z"/>
<path d="M2329 1912 c-30 -26 -33 -36 -37 -93 -3 -55 0 -69 20 -99 13 -19 36
-39 51 -44 53 -19 141 24 111 54 -7 7 -20 6 -41 -5 -43 -22 -78 -7 -93 40 -13
39 -8 89 11 112 14 16 50 17 84 1 20 -9 28 -9 37 0 19 19 -21 52 -69 59 -34 4
-45 1 -74 -25z"/>
<path d="M2819 1925 c-66 -36 -66 -209 0 -245 39 -21 97 -12 131 20 27 25 31
35 28 72 l-3 43 -57 3 c-53 3 -58 1 -58 -18 0 -16 6 -20 33 -20 42 0 49 -7 35
-34 -37 -71 -118 -31 -118 59 0 49 30 95 62 95 11 0 33 -8 49 -17 23 -14 31
-15 41 -4 11 10 8 17 -15 37 -32 28 -87 32 -128 9z"/>
<path d="M3107 1925 c-4 -9 -7 -68 -7 -131 0 -94 3 -116 15 -121 23 -8 27 0
29 54 1 44 3 48 28 51 23 3 29 -3 51 -52 19 -42 31 -56 46 -56 26 0 26 -4 -3
62 -24 54 -24 56 -6 74 32 32 35 68 8 98 -19 22 -34 28 -89 33 -56 5 -67 3
-72 -12z m124 -44 c23 -19 24 -19 5 -40 -12 -13 -31 -21 -53 -21 -32 0 -33 1
-33 40 0 37 2 40 29 40 16 0 39 -9 52 -19z"/>
<path d="M3476 1932 c-10 -17 -86 -236 -86 -249 0 -22 34 -11 45 15 8 19 17
22 61 22 44 0 52 -3 62 -25 13 -29 42 -34 41 -7 -1 28 -93 245 -106 249 -6 2
-14 0 -17 -5z m53 -164 c1 -5 -15 -8 -34 -8 -40 0 -41 3 -19 56 l17 39 18 -40
c9 -22 18 -43 18 -47z"/>
<path d="M3722 1923 c-8 -20 -7 -216 2 -238 7 -19 66 -19 112 0 58 24 83 121
50 200 -11 26 -23 36 -53 44 -58 17 -102 14 -111 -6z m115 -49 c22 -22 25 -32
21 -74 -6 -61 -21 -80 -64 -80 l-34 0 0 90 c0 90 0 90 25 90 14 0 37 -12 52
-26z"/>
<path d="M1720 1800 l0 -130 80 0 c63 0 82 3 87 15 9 24 -2 29 -65 29 l-57 1
4 108 3 107 -26 0 -26 0 0 -130z"/>
</g>
</svg>
