<?xml version="1.0" standalone="no"?>
<!DOCTYPE svg PUBLIC "-//W3C//DTD SVG 20010904//EN"
 "http://www.w3.org/TR/2001/REC-SVG-20010904/DTD/svg10.dtd">
<svg version="1.0" xmlns="http://www.w3.org/2000/svg"
 width="500.000000pt" height="500.000000pt" viewBox="0 0 500.000000 500.000000"
 preserveAspectRatio="xMidYMid meet">

<g transform="translate(0.000000,500.000000) scale(0.100000,-0.100000)"
fill="#000000" stroke="none">
<path d="M2046 3703 c-3 -3 -6 -145 -6 -315 0 -169 -3 -308 -6 -308 -3 0 -21
12 -39 26 l-34 26 -105 -82 c-58 -44 -112 -88 -121 -96 -12 -12 -15 -43 -15
-150 l0 -134 -90 0 c-64 0 -92 -4 -95 -12 -2 -7 -6 -124 -8 -260 l-5 -248 979
0 979 0 -2 413 -3 412 -210 0 -210 0 -5 -98 -5 -98 -34 25 c-40 30 -33 33
-166 -71 l-100 -79 -3 -232 -2 -232 -25 0 -25 0 -2 493 -3 492 -62 3 -63 3 0
149 0 149 135 -102 135 -102 0 -237 c0 -131 4 -238 8 -238 5 0 16 8 26 18 14
17 16 45 14 248 l-3 229 -160 122 c-88 68 -167 123 -176 123 -26 0 -29 -20
-29 -196 l0 -164 -124 0 c-104 0 -125 -3 -130 -16 -3 -9 -6 -231 -6 -495 l0
-479 -25 0 -25 0 0 379 0 378 -60 47 -60 47 0 300 0 300 135 -103 135 -103 0
-107 0 -108 25 0 25 0 0 118 0 117 -152 115 c-164 124 -192 143 -202 133z
m464 -1038 l0 -475 -105 0 -105 0 0 475 0 475 105 0 105 0 0 -475z m130 0 l0
-475 -40 0 -40 0 0 475 0 475 40 0 40 0 0 -475z m-634 378 l34 -28 0 -412 0
-413 -40 0 -40 0 -2 238 -3 237 -92 3 -93 3 0 128 0 128 92 72 c50 39 95 71
100 71 5 0 25 -12 44 -27z m140 -116 c4 -7 -2 -4 -13 6 -11 9 -23 17 -26 17
-4 0 -7 -171 -7 -380 0 -247 -4 -380 -10 -380 -6 0 -10 139 -10 396 l0 395 30
-21 c16 -11 33 -26 36 -33z m1284 -362 l0 -375 -110 0 -110 0 0 233 0 234 -55
39 -55 39 0 103 0 102 165 0 165 0 0 -375z m-440 197 c0 -4 -43 -40 -95 -81
l-95 -73 -3 -212 -2 -211 -2 225 -2 225 87 67 c81 63 112 79 112 60z m180
-354 l0 -218 -35 0 -35 0 0 245 0 246 35 -28 35 -28 0 -217z m-1450 2 l0 -220
-70 0 -70 0 0 220 0 220 70 0 70 0 0 -220z m190 210 c0 -6 -27 -10 -60 -10
l-60 0 0 -210 c0 -133 -4 -210 -10 -210 -6 0 -10 80 -10 220 l0 220 70 0 c40
0 70 -4 70 -10z"/>
<path d="M1116 1931 c-8 -13 -9 -238 -1 -251 3 -6 28 -10 55 -10 86 0 141 75
125 172 -11 65 -42 91 -112 96 -37 3 -63 0 -67 -7z m109 -56 c19 -18 25 -35
25 -67 0 -59 -22 -88 -66 -88 l-34 0 0 83 c0 46 3 87 7 90 14 14 45 6 68 -18z"/>
<path d="M1447 1916 c-44 -41 -50 -161 -10 -215 29 -37 93 -42 127 -8 48 48
43 197 -7 232 -32 23 -80 19 -110 -9z m93 -52 c11 -28 13 -87 4 -121 -9 -33
-44 -40 -66 -13 -21 26 -25 129 -6 148 21 21 58 14 68 -14z"/>
<path d="M1727 1934 c-4 -4 -7 -65 -7 -136 l0 -129 83 3 c74 3 82 5 82 23 0
17 -8 21 -60 25 l-60 5 0 105 c0 87 -3 105 -15 108 -9 1 -19 0 -23 -4z"/>
<path d="M2055 1928 c-51 -145 -85 -245 -85 -250 0 -20 42 -6 52 17 10 21 18
25 58 25 40 0 48 -4 58 -25 12 -26 53 -36 51 -12 0 6 -21 66 -47 132 -32 81
-53 121 -65 123 -9 2 -19 -2 -22 -10z m40 -118 c21 -41 19 -50 -15 -50 -16 0
-30 4 -30 9 0 12 21 71 26 71 2 0 10 -13 19 -30z"/>
<path d="M2341 1926 c-35 -19 -50 -54 -51 -113 0 -60 11 -94 40 -123 42 -42
165 -13 147 34 -5 13 -13 16 -25 11 -64 -28 -105 -10 -115 51 -13 79 35 125
93 91 25 -15 29 -15 41 -1 11 14 9 20 -14 40 -31 27 -78 31 -116 10z"/>
<path d="M2817 1929 c-48 -28 -69 -160 -33 -214 25 -37 75 -57 116 -45 45 13
68 36 81 82 14 54 1 68 -67 68 -47 0 -54 -3 -54 -20 0 -14 9 -21 35 -26 39 -7
44 -22 17 -47 -40 -37 -88 -9 -99 56 -8 50 3 84 32 103 24 16 28 16 66 -1 31
-15 42 -16 52 -6 9 10 6 18 -16 37 -30 26 -96 33 -130 13z"/>
<path d="M3107 1933 c-4 -3 -7 -64 -7 -135 0 -128 0 -129 23 -126 19 3 23 11
27 53 4 42 8 50 25 50 14 0 29 -16 48 -52 19 -36 35 -53 48 -53 24 0 24 11 -1
60 -21 42 -26 70 -11 70 5 0 14 14 21 30 17 42 -1 85 -42 99 -34 12 -121 15
-131 4z m132 -67 c4 -25 -24 -46 -61 -46 -25 0 -28 3 -28 36 l0 35 42 -3 c33
-2 44 -7 47 -22z"/>
<path d="M3469 1918 c-6 -12 -29 -72 -50 -135 l-38 -113 23 0 c15 0 27 9 34
25 10 21 18 25 57 25 39 0 47 -4 57 -25 10 -23 37 -33 50 -19 3 3 -4 31 -17
62 -12 31 -34 90 -49 130 -29 75 -47 88 -67 50z m30 -156 c-17 -2 -33 -1 -36
1 -2 3 3 22 13 43 l16 39 19 -40 18 -40 -30 -3z"/>
<path d="M3722 1928 c-17 -17 -17 -229 0 -246 17 -17 100 -15 126 4 33 23 54
71 54 123 -1 64 -16 97 -51 116 -36 18 -112 20 -129 3z m115 -49 c29 -25 27
-114 -4 -144 -8 -8 -28 -15 -44 -15 l-29 0 0 83 c0 46 3 87 7 91 9 8 53 -1 70
-15z"/>
</g>
</svg>
