<?xml version="1.0" standalone="no"?>
<!DOCTYPE svg PUBLIC "-//W3C//DTD SVG 20010904//EN"
 "http://www.w3.org/TR/2001/REC-SVG-20010904/DTD/svg10.dtd">
<svg version="1.0" xmlns="http://www.w3.org/2000/svg"
 width="512.000000pt" height="512.000000pt" viewBox="0 0 512.000000 512.000000"
 preserveAspectRatio="xMidYMid meet">

<g transform="translate(0.000000,512.000000) scale(0.100000,-0.100000)"
fill="#000000" stroke="none">
<path d="M22 5097 l-22 -23 0 -2515 0 -2516 23 -21 23 -22 2515 0 2516 0 21
23 c12 13 22 34 22 48 0 36 -5014 5049 -5051 5049 -14 0 -35 -10 -47 -23z
m2493 -2587 l2370 -2370 -448 0 -447 0 0 262 c0 229 -2 264 -17 280 -22 25
-75 23 -99 -3 -17 -19 -19 -42 -22 -280 l-3 -259 -109 0 -110 0 0 114 c0 99
-3 117 -21 140 -25 32 -64 34 -96 4 -22 -20 -23 -29 -23 -140 l0 -118 -115 0
-115 0 0 262 c0 229 -2 264 -17 280 -22 25 -75 23 -99 -3 -17 -19 -19 -42 -22
-280 l-3 -259 -109 0 -110 0 0 114 c0 99 -3 117 -21 140 -25 32 -70 35 -99 6
-18 -18 -20 -33 -20 -140 l0 -120 -115 0 -115 0 0 262 c0 229 -2 264 -17 280
-22 25 -75 23 -99 -3 -17 -19 -19 -42 -22 -280 l-3 -259 -109 0 -110 0 0 114
c0 99 -3 117 -21 140 -25 32 -70 35 -99 6 -18 -18 -20 -33 -20 -140 l0 -120
-115 0 -115 0 0 262 c0 229 -2 264 -17 280 -22 25 -75 23 -99 -3 -17 -19 -19
-42 -22 -280 l-3 -259 -109 0 -110 0 0 114 c0 99 -3 117 -21 140 -25 32 -70
35 -99 6 -18 -18 -20 -33 -20 -140 l0 -120 -115 0 -115 0 0 258 c0 217 -2 261
-16 280 -20 29 -74 30 -100 1 -17 -19 -19 -42 -22 -280 l-3 -259 -394 0 -395
0 0 395 0 394 259 3 c238 3 261 5 280 22 29 26 28 80 -1 100 -19 14 -63 16
-280 16 l-258 0 0 115 0 115 120 0 c107 0 122 2 140 20 29 29 26 74 -6 99 -23
18 -41 21 -140 21 l-114 0 0 110 0 109 259 3 c238 3 261 5 280 22 29 26 28 80
-1 100 -19 14 -63 16 -280 16 l-258 0 0 115 0 115 118 0 c105 0 121 2 140 20
31 29 29 73 -4 99 -23 18 -41 21 -140 21 l-114 0 0 110 0 109 259 3 c238 3
261 5 280 22 25 23 28 72 4 98 -15 17 -37 18 -280 18 l-263 0 0 115 0 115 117
0 c106 0 119 2 140 22 31 29 30 71 -3 97 -23 18 -41 21 -140 21 l-114 0 0 110
0 109 259 3 c238 3 261 5 280 22 25 23 28 72 4 98 -15 17 -37 18 -280 18
l-263 0 0 115 0 115 117 0 c106 0 119 2 140 22 31 29 30 71 -3 97 -23 18 -41
21 -140 21 l-114 0 0 110 0 109 259 3 c238 3 261 5 280 22 25 23 28 72 4 98
-15 17 -37 18 -280 18 l-263 0 0 445 c0 245 1 445 3 445 1 0 1069 -1066 2372
-2370z"/>
<path d="M951 2834 c-21 -27 -21 -31 -21 -930 0 -641 3 -910 11 -927 6 -14 22
-30 36 -36 17 -8 286 -11 927 -11 899 0 903 0 930 21 18 14 26 30 26 52 0 29
-85 117 -913 945 -826 826 -915 912 -944 912 -22 0 -38 -8 -52 -26z m901 -981
c423 -423 768 -771 768 -775 0 -5 -349 -8 -775 -8 l-775 0 0 775 c0 426 3 775
7 775 5 0 353 -345 775 -767z"/>
</g>
</svg>
