<?xml version="1.0" standalone="no"?>
<!DOCTYPE svg PUBLIC "-//W3C//DTD SVG 20010904//EN"
 "http://www.w3.org/TR/2001/REC-SVG-20010904/DTD/svg10.dtd">
<svg version="1.0" xmlns="http://www.w3.org/2000/svg"
 width="512.000000pt" height="512.000000pt" viewBox="0 0 512.000000 512.000000"
 preserveAspectRatio="xMidYMid meet">

<g transform="translate(0.000000,512.000000) scale(0.100000,-0.100000)"
fill="#000000" stroke="none">
<path d="M2335 5104 c-173 -26 -396 -112 -525 -201 l-55 -38 -336 -5 -335 -5
-76 -38 c-91 -45 -157 -112 -202 -207 l-31 -65 -3 -895 c-2 -869 -2 -897 17
-960 37 -121 134 -226 254 -273 39 -15 83 -21 174 -25 l123 -4 -58 -35 c-144
-87 -242 -186 -299 -301 -31 -62 -37 -86 -41 -156 -12 -231 74 -502 227 -716
107 -150 272 -301 442 -406 l61 -38 -6 -55 c-3 -31 -11 -126 -17 -212 -11
-150 -11 -160 10 -227 27 -88 95 -168 179 -209 l57 -28 665 0 665 0 57 28 c84
41 152 121 179 209 21 67 21 77 10 227 -6 86 -14 181 -17 212 l-6 56 53 31
c87 50 198 136 287 224 261 256 406 594 390 904 -4 70 -10 94 -41 156 -57 115
-155 214 -299 301 l-58 35 123 4 c91 4 135 10 174 25 120 47 217 152 254 273
19 63 19 91 17 960 l-3 895 -31 65 c-45 95 -111 162 -202 207 l-76 38 -335 5
-336 5 -45 32 c-138 96 -358 180 -541 207 -128 19 -321 19 -444 0z m500 -183
c429 -91 725 -403 848 -896 52 -207 62 -300 62 -590 0 -243 -2 -282 -23 -384
-29 -141 -87 -321 -140 -432 -57 -118 -61 -123 -97 -109 -54 21 -298 78 -400
94 -188 30 -290 37 -525 37 -330 0 -571 -31 -850 -110 -122 -35 -110 -41 -170
84 -55 115 -107 270 -136 409 -22 101 -27 156 -31 338 -6 232 5 383 38 550
121 608 450 953 980 1028 98 14 340 4 444 -19z m-1281 -243 c-4 -6 -31 -44
-59 -84 -95 -132 -186 -347 -233 -549 -74 -316 -85 -754 -27 -1040 27 -133 72
-285 111 -374 13 -29 24 -57 24 -62 0 -5 -51 -9 -113 -9 -107 0 -118 2 -174
30 -34 17 -73 46 -87 65 -58 75 -56 44 -56 969 0 555 4 864 10 888 16 57 69
119 129 150 l53 28 215 0 c159 0 212 -3 207 -12z m2487 -16 c61 -32 113 -93
129 -152 7 -25 9 -325 8 -902 -3 -831 -4 -864 -22 -902 -25 -50 -72 -97 -122
-121 -30 -15 -67 -20 -163 -23 -117 -4 -124 -3 -118 14 3 11 22 62 43 114 47
121 88 286 109 431 21 149 21 460 0 645 -43 374 -139 635 -334 905 -13 19 -8
19 202 19 l215 0 53 -28z m-1055 -2221 c455 -71 746 -178 908 -331 132 -125
150 -267 51 -402 -108 -147 -403 -292 -733 -362 -221 -47 -356 -59 -642 -60
-292 -1 -402 9 -634 55 -194 39 -333 85 -481 159 -278 138 -396 312 -322 473
50 110 171 212 349 296 179 85 437 154 668 180 52 6 109 13 125 15 17 2 154 3
305 1 217 -2 302 -7 406 -24z m-1709 -1038 c173 -110 492 -215 783 -257 349
-50 756 -45 1092 14 251 44 538 145 692 244 32 20 60 35 62 33 2 -2 -22 -46
-54 -97 -80 -131 -252 -305 -389 -394 -333 -217 -748 -305 -1158 -245 -462 68
-856 323 -1069 692 -16 26 -25 47 -22 47 3 0 31 -16 63 -37z m689 -792 c392
-131 796 -131 1188 0 65 21 121 39 125 39 4 0 13 -75 20 -166 11 -155 10 -168
-8 -208 -10 -24 -36 -56 -57 -72 l-37 -29 -637 0 -637 0 -37 29 c-21 16 -47
48 -57 72 -18 40 -19 53 -8 208 7 91 16 166 20 166 4 0 60 -18 125 -39z"/>
<path d="M2406 4769 c-375 -49 -640 -280 -771 -672 -61 -184 -95 -401 -95
-610 0 -105 2 -115 23 -134 26 -24 51 -30 89 -20 45 12 55 47 61 217 14 380
113 674 287 847 123 123 265 185 475 207 132 13 159 24 167 71 7 35 -17 84
-47 95 -30 12 -92 11 -189 -1z"/>
<path d="M2227 2285 c-360 -45 -601 -145 -668 -276 -25 -50 -25 -128 0 -178
90 -176 485 -291 1001 -291 516 0 911 115 1001 291 25 50 25 128 0 178 -61
119 -279 217 -591 267 -143 22 -593 28 -743 9z m731 -179 c237 -39 452 -127
452 -186 0 -60 -217 -148 -462 -187 -161 -26 -615 -26 -776 0 -245 39 -462
127 -462 187 0 37 90 90 225 133 100 31 170 46 305 63 145 18 578 12 718 -10z"/>
</g>
</svg>
